<svg width="138" height="120" viewBox="0 0 138 120" fill="none" xmlns="http://www.w3.org/2000/svg">
<path d="M69.4001 111.1C48.2001 111.1 29.4001 96.8999 23.7001 76.4999L28.4001 75.1999C33.5001 93.4999 50.3001 106.2 69.4001 106.2C88.5001 106.2 105.3 93.4999 110.4 75.1999L115.1 76.4999C109.4 96.8999 90.6001 111.1 69.4001 111.1ZM69.4001 92.2999C53.7001 92.2999 40.9001 79.5999 40.9001 63.8999C40.9001 48.2999 53.7001 35.4999 69.4001 35.4999C85.1001 35.4999 97.9001 48.1999 97.9001 63.8999C97.9001 79.4999 85.1001 92.2999 69.4001 92.2999ZM54.5001 82.0999C58.6001 85.3999 63.7001 87.3999 69.4001 87.3999C81.6001 87.3999 91.7001 78.1999 92.9001 66.2999H70.4001L54.5001 82.0999ZM66.8001 40.4999C55.0001 41.7999 45.8001 51.7999 45.8001 63.8999C45.8001 69.4999 47.8001 74.6999 51.1001 78.6999L66.8001 62.9999V40.4999ZM71.7001 61.4999H92.9001C91.7001 50.3999 82.8001 41.5999 71.7001 40.5999V61.4999ZM111.8 60.7999C110.8 46.9999 103.2 34.7999 91.4001 27.6999C89.6001 29.8999 86.9001 31.2999 83.8001 31.2999C78.4001 31.2999 74.0001 26.8999 74.0001 21.5999C74.0001 16.2999 78.4001 11.8999 83.8001 11.8999C89.2001 11.8999 93.6001 16.2999 93.6001 21.5999C93.6001 22.1999 93.5001 22.6999 93.5001 23.2999C106.9 31.1999 115.5 44.8999 116.7 60.4999L111.8 60.7999ZM83.8001 16.6999C81.1001 16.6999 78.9001 18.8999 78.9001 21.5999C78.9001 24.2999 81.1001 26.4999 83.8001 26.4999C86.5001 26.4999 88.7001 24.2999 88.7001 21.5999C88.7001 18.8999 86.6001 16.6999 83.8001 16.6999ZM27.0001 60.7999L22.1001 60.3999C23.6001 40.0999 37.9001 23.0999 57.7001 18.0999L58.9001 22.7999C41.1001 27.3999 28.3001 42.5999 27.0001 60.7999Z" fill="#F9007A"/>
</svg>
