<svg width="138" height="120" viewBox="0 0 138 120" fill="none" xmlns="http://www.w3.org/2000/svg">
<path d="M54.2002 110.2H46.8002C43.9002 110.2 41.5002 107.8 41.5002 104.9V79.6998H40.4002C35.9002 79.6998 32.1002 76.6998 30.8002 72.6998C24.5002 71.7998 19.7002 66.3998 19.7002 59.8998C19.7002 53.3998 24.5002 47.9998 30.8002 47.0998C32.1002 42.9998 35.9002 40.0998 40.4002 40.0998H50.0002C59.4002 40.0998 68.6002 38.3998 77.4002 34.9998L102.9 22.3998V20.8998C102.9 16.3998 106.5 12.7998 111 12.7998C115.5 12.7998 119.1 16.3998 119.1 20.8998V98.9998C119.1 103.5 115.5 107.1 111 107.1C106.5 107.1 102.9 103.5 102.9 98.9998V97.4998L77.2002 84.7998C73.8002 83.4998 70.2002 82.3998 66.6002 81.5998V84.0998C66.6002 85.5998 66.0002 87.0998 64.9002 88.0998L59.7002 93.2998C59.5002 93.4998 59.5002 93.6998 59.5002 93.8998V104.9C59.6002 107.8 57.2002 110.2 54.2002 110.2ZM46.4002 79.6998V104.8C46.4002 105 46.6002 105.2 46.8002 105.2H54.2002C54.4002 105.2 54.6002 105 54.6002 104.8V93.7998C54.6002 92.2998 55.2002 90.7998 56.3002 89.7998L61.5002 84.5998C61.7002 84.3998 61.7002 84.1998 61.7002 83.9998V80.5998C57.9002 79.9998 54.0002 79.6998 50.0002 79.6998H46.4002ZM111 17.5998C109.2 17.5998 107.8 18.9998 107.8 20.7998V98.9998C107.8 100.8 109.2 102.2 111 102.2C112.8 102.2 114.2 100.8 114.2 98.9998V20.7998C114.2 19.0998 112.8 17.5998 111 17.5998ZM66.6002 76.5998C70.9002 77.4998 75.0002 78.6998 79.1002 80.2998L102.8 92.0998V27.7998L79.4002 39.3998C75.2002 40.9998 71.0002 42.2998 66.7002 43.1998V76.5998H66.6002ZM40.4002 44.9998C37.5002 44.9998 35.2002 47.2998 35.2002 50.1998V69.6998C35.2002 72.5998 37.5002 74.8998 40.4002 74.8998H50.0002C54.0002 74.8998 57.9002 75.1998 61.8002 75.7998V44.0998C57.9002 44.6998 54.0002 44.9998 50.0002 44.9998H40.4002ZM30.3002 52.1998C27.0002 53.1998 24.5002 56.2998 24.5002 59.8998C24.5002 63.4998 26.9002 66.5998 30.3002 67.5998V52.1998Z" fill="#F9007A"/>
</svg>
