<svg width="138" height="120" viewBox="0 0 138 120" fill="none" xmlns="http://www.w3.org/2000/svg">
<path d="M80.2002 108.6H58.6002L56.9002 98.9999C55.1002 98.3999 53.3002 97.6999 51.7002 96.7999L43.7002 102.4L28.4002 87.1999L34.0002 79.1999C33.2002 77.4999 32.4002 75.7999 31.8002 73.9999L22.2002 72.2999V50.6999L31.8002 48.9999C32.4002 47.1999 33.1002 45.3999 34.0002 43.7999L28.4002 35.7999L43.6002 20.5999L51.6002 26.1999C53.3002 25.3999 55.0002 24.5999 56.8002 23.9999L58.5002 14.3999H80.0002L81.7002 23.9999C83.5002 24.5999 85.3002 25.2999 86.9002 26.1999L94.9002 20.5999L110.1 35.7999L104.5 43.7999C105.3 45.4999 106.1 47.1999 106.7 48.9999L116.3 50.6999V72.1999L106.7 73.8999C106.1 75.6999 105.4 77.4999 104.5 79.0999L110.1 87.0999L94.9002 102.3L86.9002 96.6999C85.2002 97.4999 83.5002 98.2999 81.7002 98.8999L80.2002 108.6ZM62.7002 103.7H76.1002L77.6002 95.1999L79.1002 94.7999C81.6002 94.0999 83.9002 93.0999 86.2002 91.8999L87.5002 91.1999L94.6002 96.1999L104.1 86.6999L99.1002 79.5999L99.8002 78.2999C101 76.0999 102 73.6999 102.7 71.1999L103.1 69.6999L111.6 68.1999V54.7999L103.1 53.2999L102.7 51.7999C102 49.2999 101 46.9999 99.8002 44.6999L99.1002 43.3999L104.1 36.2999L94.6002 26.7999L87.5002 31.7999L86.2002 31.0999C84.0002 29.8999 81.6002 28.8999 79.1002 28.1999L77.6002 27.7999L76.1002 19.2999H62.7002L61.2002 27.7999L59.7002 28.1999C57.2002 28.8999 54.8002 29.8999 52.6002 31.0999L51.3002 31.7999L44.2002 26.7999L34.7002 36.2999L39.7002 43.3999L39.0002 44.6999C37.8002 46.8999 36.8002 49.2999 36.1002 51.7999L35.7002 53.2999L27.2002 54.7999V68.1999L35.7002 69.6999L36.1002 71.1999C36.8002 73.6999 37.8002 75.9999 39.0002 78.2999L39.7002 79.5999L34.7002 86.6999L44.2002 96.1999L51.3002 91.1999L52.6002 91.8999C54.8002 93.0999 57.2002 94.0999 59.7002 94.7999L61.2002 95.1999L62.7002 103.7ZM69.3002 85.5999L48.5002 73.4999V49.3999L69.4002 37.2999L90.3002 49.3999V73.4999L69.3002 85.5999ZM71.8002 62.8999V78.5999L85.4002 70.7999V54.9999L71.8002 62.8999ZM53.3002 70.6999L66.9002 78.4999V62.8999L53.3002 54.9999V70.6999ZM55.8002 50.7999L69.4002 58.5999L83.0002 50.7999L69.3002 42.9999L55.8002 50.7999Z" fill="#F9007A"/>
</svg>
