<svg width="138" height="120" viewBox="0 0 138 120" fill="none" xmlns="http://www.w3.org/2000/svg">
<path d="M90.8002 42.1999C89.4002 42.1999 88.0002 42.1999 86.6002 42.1999C86.6002 39.9999 86.6002 37.7999 86.6002 35.4999C70.9002 35.4999 55.2002 35.4999 39.5002 35.4999C39.5002 35.7999 39.5002 36.0999 39.5002 36.2999C39.5002 54.7999 39.5002 73.2999 39.5002 91.8999C39.5002 93.8999 40.2002 94.5999 42.2002 94.5999C45.3002 94.5999 48.3002 94.5999 51.4002 94.5999C51.7002 94.5999 52.0002 94.5999 52.3002 94.5999C52.3002 95.9999 52.3002 97.3999 52.3002 98.7999C52.0002 98.7999 51.8002 98.7999 51.5002 98.7999C48.4002 98.7999 45.3002 98.7999 42.1002 98.7999C37.9002 98.7999 35.2002 96.0999 35.2002 91.8999C35.2002 66.4999 35.2002 41.1999 35.2002 15.7999C35.2002 11.5999 37.9002 8.8999 42.1002 8.8999C56.1002 8.8999 70.0002 8.8999 84.0002 8.8999C88.1002 8.8999 90.8002 11.5999 90.8002 15.6999C90.8002 24.1999 90.8002 32.7999 90.8002 41.2999C90.9002 41.6999 90.8002 41.8999 90.8002 42.1999ZM86.6002 31.0999C86.6002 30.7999 86.6002 30.5999 86.6002 30.2999C86.6002 25.4999 86.6002 20.6999 86.6002 15.9999C86.6002 14.0999 85.9002 13.3999 84.0002 13.3999C70.1002 13.3999 56.1002 13.3999 42.2002 13.3999C40.3002 13.3999 39.6002 14.0999 39.6002 15.9999C39.6002 20.7999 39.6002 25.5999 39.6002 30.2999C39.6002 30.5999 39.6002 30.7999 39.6002 31.0999C55.2002 31.0999 70.9002 31.0999 86.6002 31.0999Z" fill="#F9007A"/>
<path d="M112.3 79.0998C112.2 82.8998 111.7 86.3998 110.3 89.5998C109.8 90.8998 108.7 91.4998 107.6 91.0998C106.3 90.5998 105.8 89.4998 106.3 88.0998C107.6 84.6998 108.2 81.0998 107.9 77.4998C107.4 71.4998 104.9 66.3998 100.5 62.2998C95.3004 57.3998 89.0004 55.2998 82.0004 55.9998C76.2004 56.5998 71.2004 59.0998 67.2004 63.3998C62.8004 68.1998 60.7004 73.8998 60.9004 80.3998C61.0004 83.1998 61.6004 85.8998 62.7004 88.4998C63.0004 89.2998 63.0004 89.9998 62.5004 90.5998C62.0004 91.2998 61.3004 91.5998 60.5004 91.4998C59.6004 91.3998 59.0004 90.8998 58.8004 90.0998C58.1004 87.8998 57.4004 85.7998 57.0004 83.5998C56.0004 78.2998 56.8004 73.0998 59.0004 68.1998C61.8004 61.8998 66.3004 57.2998 72.5004 54.2998C77.3004 51.9998 82.3004 51.1998 87.6004 51.7998C94.3004 52.4998 100 55.3998 104.6 60.1998C109.7 65.5998 112.1 72.0998 112.3 79.0998Z" fill="#F9007A"/>
<path d="M97.3002 113.8C95.9002 113.8 94.7002 113.8 93.5002 113.8C93.4002 113.8 93.2002 113.8 93.0002 113.7C93.0002 113.3 93.0002 113 93.0002 112.7C93.0002 102.1 93.0002 91.4 93.0002 80.8C93.0002 77.4 91.8002 74.6 89.0002 72.5C86.2002 70.4 82.3002 70.5 79.6002 72.7C77.1002 74.7 75.9002 77.3 75.9002 80.5C75.9002 91.2 75.9002 101.9 75.9002 112.7C75.9002 113.8 75.9002 113.8 74.8002 113.8C74.0002 113.8 73.1002 113.8 72.3002 113.8C71.7002 113.8 71.5002 113.6 71.6002 113.1C71.6002 113 71.6002 112.9 71.6002 112.9C71.6002 102.2 71.6002 91.5 71.6002 80.8C71.6002 76.8 72.9002 73.3 75.7002 70.5C81.7002 64.5 91.2002 65.9 95.4002 73.4C96.7002 75.7 97.3002 78.1 97.3002 80.7C97.3002 91.4 97.3002 102.1 97.3002 112.8C97.3002 113.1 97.3002 113.4 97.3002 113.8Z" fill="#F9007A"/>
<path d="M88.7003 88.0998C85.9003 88.0998 83.1003 88.0998 80.3003 88.0998C80.3003 87.8998 80.2003 87.7998 80.2003 87.5998C80.2003 85.4998 80.1003 83.2998 80.3003 81.1998C80.5003 78.9998 82.4003 77.3998 84.5003 77.4998C86.6003 77.4998 88.5003 79.0998 88.7003 81.1998C88.8003 83.4998 88.7003 85.7998 88.7003 88.0998Z" fill="#F9007A"/>
</svg>
