<svg width="138" height="120" viewBox="0 0 138 120" fill="none" xmlns="http://www.w3.org/2000/svg">
<path d="M119.6 111.7H19.2V11.2002H24V106.8H119.6V111.7ZM39.4 97.1002C34.6 97.1002 30.6 93.2002 30.6 88.3002C30.6 83.5002 34.5 79.5002 39.4 79.5002C40.3 79.5002 41.2999 79.7002 42.0999 79.9002L54.7 61.2002C53.4 59.7002 52.7 57.7002 52.7 55.6002C52.7 50.8002 56.6 46.8002 61.5 46.8002C66.3 46.8002 70.3 50.7002 70.3 55.6002C70.3 56.4002 70.2 57.1002 70 57.8002L79.1999 63.2002C81.3999 61.1002 84.9999 60.3002 87.8999 61.2002L100.5 42.5002C99.2 41.0002 98.5 39.0002 98.5 36.9002C98.5 32.1002 102.4 28.1002 107.3 28.1002C112.1 28.1002 116.1 32.0002 116.1 36.9002C116.1 41.8002 112.2 45.7002 107.3 45.7002C106.4 45.7002 105.4 45.5002 104.6 45.3002L91.8999 64.0002C93.1999 65.5002 93.8999 67.5002 93.8999 69.6002C93.8999 74.4002 89.9999 78.4002 85.0999 78.4002C80.2999 78.4002 76.3 74.5002 76.3 69.6002C76.3 68.8002 76.3999 68.1002 76.5999 67.4002L67.5 62.0002C65.3 64.1002 61.6999 65.0002 58.7999 64.0002L46.0999 82.7002C47.3999 84.2002 48.0999 86.2002 48.0999 88.3002C48.1999 93.2002 44.2 97.1002 39.4 97.1002ZM39.4 84.4002C37.2 84.4002 35.5 86.2002 35.5 88.3002C35.5 90.5002 37.3 92.2002 39.4 92.2002C41.6 92.2002 43.2999 90.4002 43.2999 88.3002C43.2999 86.2002 41.5 84.4002 39.4 84.4002ZM85.2 65.7002C83 65.7002 81.3 67.5002 81.3 69.6002C81.3 71.8002 83.1 73.5002 85.2 73.5002C87.4 73.5002 89.0999 71.7002 89.0999 69.6002C89.0999 67.5002 87.3 65.7002 85.2 65.7002ZM61.5 51.8002C59.3 51.8002 57.5999 53.6002 57.5999 55.7002C57.5999 57.9002 59.4 59.6002 61.5 59.6002C63.7 59.6002 65.4 57.8002 65.4 55.7002C65.4 53.5002 63.6 51.8002 61.5 51.8002ZM107.2 33.0002C105 33.0002 103.3 34.8002 103.3 36.9002C103.3 39.1002 105.1 40.8002 107.2 40.8002C109.3 40.8002 111.1 39.0002 111.1 36.9002C111.1 34.8002 109.4 33.0002 107.2 33.0002Z" fill="#F9007A"/>
</svg>
