<svg width="138" height="120" viewBox="0 0 138 120" fill="none" xmlns="http://www.w3.org/2000/svg">
<path d="M90.3001 113.7H16.6001L16.7001 111.2C17.2001 91.2002 33.4001 75.5002 53.4001 75.5002C73.5001 75.5002 89.6001 91.2002 90.1001 111.2L90.3001 113.7ZM21.7001 108.8H85.1001C83.5001 92.7002 70.0001 80.3002 53.4001 80.3002C36.9001 80.3002 23.4001 92.7002 21.7001 108.8ZM99.3001 87.2002L81.0001 68.8002L84.4001 65.4002L94.5001 75.5002V64.7002H117.3V14.1002H37.7001V9.2002H122.1V69.5002H99.3001V87.2002ZM53.4001 65.5002C42.7001 65.5002 34.1001 56.8002 34.1001 46.2002C34.1001 35.5002 42.8001 26.9002 53.4001 26.9002C64.1001 26.9002 72.7001 35.6002 72.7001 46.2002C72.8001 56.9002 64.1001 65.5002 53.4001 65.5002ZM53.4001 31.7002C45.4001 31.7002 38.9001 38.2002 38.9001 46.2002C38.9001 54.2002 45.4001 60.7002 53.4001 60.7002C61.4001 60.7002 67.9001 54.2002 67.9001 46.2002C67.9001 38.2002 61.4001 31.7002 53.4001 31.7002Z" fill="#F9007A"/>
</svg>
