<svg width="138" height="120" viewBox="0 0 138 120" fill="none" xmlns="http://www.w3.org/2000/svg">
<path d="M129.2 112.8H9.5998C4.6998 112.8 0.799805 108.6 0.799805 103.4V95.8001H10.8998V19.5001C10.8998 14.3001 14.8998 10.1001 19.6998 10.1001H119.1C124 10.1001 127.9 14.3001 127.9 19.5001V95.8001H138V103.4C138 108.6 134 112.8 129.2 112.8ZM5.5998 100.7V103.4C5.5998 105.9 7.3998 107.9 9.5998 107.9H129.2C131.4 107.9 133.2 105.9 133.2 103.4V100.7H5.5998ZM15.7998 95.8001H123V19.5001C123 17.0001 121.2 15.0001 119 15.0001H19.6998C17.4998 15.0001 15.6998 17.0001 15.6998 19.5001V95.8001H15.7998ZM65.6998 85.6001L60.9998 84.4001L74.3998 29.2001L79.0998 30.3001L65.6998 85.6001ZM87.7998 79.4001L84.1998 76.1001L101.3 57.5001L84.1998 39.0001L87.7998 35.7001L108 57.5001L87.7998 79.4001ZM53.0998 79.4001L32.8998 57.5001L52.9998 35.6001L56.5998 38.9001L39.4998 57.5001L56.5998 76.1001L53.0998 79.4001Z" fill="#F9007A"/>
</svg>
